# xmcd CD database file
#
# Track frame offsets:
#	150
#	14767
#	27092
#	42545
#	59680
#	77210
#	99497
#	107980
#	125917
#	131872
#	148762
#	164440
#	186430
#	205015
#	220802
#	238152
#	255225
#	264915
#	283172
#	295277
#	307582
#
# Disc length: 4385 seconds
#
# Revision: 2
# Processed by: cddbd v1.5.2PL0 Copyright (c) Steve Scherf et al.
# Submitted via: CDex 1.51
#
DISCID=49111f15
DTITLE=La Musica Cubana - Vol. 4
DYEAR=2004
DGENRE=Salsa
TTITLE0=Duo Los Compadres/Rita La Caimana
TTITLE1=Pacho Alonso y sus Pachucos/Dame La Mano y Caminemos
TTITLE2=Ibrahim Ferrer y Los Bocucos/Ay, Candela
TTITLE3=Farah Maria/El Recuerdo De Aquel Largo Viaje
TTITLE4=Ela Calvo con Frank Emilio al piano/Si Me Pudieras Querer
TTITLE5=Grupo Irakere dirigido por Chucho Valdes/Valle De Picadura
TTITLE6=Luis Carbonell/El Secuestro De La Mujer De Antonio
TTITLE7=Clara y Mario/Cuenta Conmigo
TTITLE8=Nancy Casanova/La Celosa
TTITLE9=Carlos Puebla y sus Tradicionales
TTITLE10=Caridad Hierrezuelo y el Conjunto Caney/Sabor a Caney
TTITLE11=Conjunto Los Latinos/Siguelo Ahi (A lo cortico)
TTITLE12=Orquesta Ritmo Oriental/Yo Bailo De Todo
TTITLE13=Fernando Alvarez/Vuelvete a Mi
TTITLE14=Amaury Perez/Acuerdate De Abril
TTITLE15=Miriam Ramos/Mariposa
TTITLE16=Coro Nacional de Cuba/Negro Bembon
TTITLE17=Conjunto Rumbavana/El Son de Adalberto
TTITLE18=Noel Nicola/Es Mas, Te Perdono
TTITLE19=Roberto Sanchez y el Conjunto Gloria Matancera a duo con Fernando Alvarez/Deuda
TTITLE20=Tito Gomez y la Orquesta Enrique Jorrin/Vereda Tropical
EXTD=YEAR: 2004
EXTT0=
EXTT1=
EXTT2=
EXTT3=
EXTT4=
EXTT5=
EXTT6=
EXTT7=
EXTT8=
EXTT9=
EXTT10=
EXTT11=
EXTT12=
EXTT13=
EXTT14=
EXTT15=
EXTT16=
EXTT17=
EXTT18=
EXTT19=
EXTT20=
PLAYORDER=
